<svg width="162" height="53" viewBox="0 0 162 53" fill="none" xmlns="http://www.w3.org/2000/svg">
<g filter="url(#filter0_d_50_407)">
<g filter="url(#filter1_d_50_407)">
<rect x="4" width="154" height="45" rx="16" fill="#00ABED"/>
<rect x="5" y="1" width="152" height="43" rx="15" stroke="white" stroke-width="2"/>
</g>
<path d="M42.7864 30.2625C41.5364 30.2625 40.3948 30.0458 39.3614 29.6125C38.3281 29.1792 37.4364 28.5708 36.6864 27.7875C35.9531 27.0042 35.3864 26.1042 34.9864 25.0875C34.5864 24.0542 34.3864 22.9542 34.3864 21.7875C34.3864 20.6042 34.5864 19.5042 34.9864 18.4875C35.3864 17.4708 35.9531 16.5708 36.6864 15.7875C37.4364 15.0042 38.3281 14.3958 39.3614 13.9625C40.3948 13.5292 41.5364 13.3125 42.7864 13.3125C44.0364 13.3125 45.1781 13.5292 46.2114 13.9625C47.2448 14.3958 48.1281 15.0042 48.8614 15.7875C49.6114 16.5708 50.1864 17.4708 50.5864 18.4875C50.9864 19.5042 51.1864 20.6042 51.1864 21.7875C51.1864 22.9542 50.9864 24.0542 50.5864 25.0875C50.1864 26.1042 49.6114 27.0042 48.8614 27.7875C48.1281 28.5708 47.2448 29.1792 46.2114 29.6125C45.1781 30.0458 44.0364 30.2625 42.7864 30.2625ZM42.7864 28.4375C44.1364 28.4375 45.2948 28.1458 46.2614 27.5625C47.2448 26.9625 47.9948 26.1625 48.5114 25.1625C49.0448 24.1458 49.3114 23.0208 49.3114 21.7875C49.3114 20.5375 49.0448 19.4125 48.5114 18.4125C47.9948 17.4125 47.2448 16.6208 46.2614 16.0375C45.2948 15.4375 44.1364 15.1375 42.7864 15.1375C41.4531 15.1375 40.2948 15.4375 39.3114 16.0375C38.3281 16.6208 37.5698 17.4125 37.0364 18.4125C36.5198 19.4125 36.2614 20.5375 36.2614 21.7875C36.2614 23.0208 36.5198 24.1458 37.0364 25.1625C37.5698 26.1625 38.3281 26.9625 39.3114 27.5625C40.2948 28.1458 41.4531 28.4375 42.7864 28.4375ZM53.7864 30.0625V17.5625H55.6614V20.6375C55.7281 20.4208 55.8531 20.1375 56.0364 19.7875C56.2364 19.4208 56.5198 19.0542 56.8864 18.6875C57.2531 18.3208 57.7114 18.0125 58.2614 17.7625C58.8281 17.4958 59.4948 17.3625 60.2614 17.3625H60.3864V19.2375H60.1614C59.2281 19.2375 58.4198 19.4958 57.7364 20.0125C57.0698 20.5125 56.5531 21.1708 56.1864 21.9875C55.8364 22.7875 55.6614 23.6458 55.6614 24.5625V30.0625H53.7864ZM67.3622 30.2625C66.1456 30.2625 65.0789 29.9792 64.1622 29.4125C63.2622 28.8292 62.5622 28.0458 62.0622 27.0625C61.5622 26.0792 61.3122 24.9958 61.3122 23.8125C61.3122 22.6125 61.5622 21.5292 62.0622 20.5625C62.5622 19.5792 63.2622 18.8042 64.1622 18.2375C65.0789 17.6542 66.1456 17.3625 67.3622 17.3625C68.3956 17.3625 69.2789 17.5625 70.0122 17.9625C70.7622 18.3625 71.3706 18.9042 71.8372 19.5875V12.5625H73.7122V30.0625H71.8372V28.0625C71.3706 28.7292 70.7622 29.2625 70.0122 29.6625C69.2789 30.0625 68.3956 30.2625 67.3622 30.2625ZM67.6122 28.5625C68.5456 28.5625 69.3289 28.3458 69.9622 27.9125C70.6122 27.4792 71.1039 26.9042 71.4372 26.1875C71.7706 25.4542 71.9372 24.6625 71.9372 23.8125C71.9372 22.9458 71.7706 22.1542 71.4372 21.4375C71.1039 20.7208 70.6122 20.1458 69.9622 19.7125C69.3289 19.2792 68.5456 19.0625 67.6122 19.0625C66.6956 19.0625 65.9039 19.2792 65.2372 19.7125C64.5706 20.1458 64.0622 20.7208 63.7122 21.4375C63.3622 22.1542 63.1872 22.9458 63.1872 23.8125C63.1872 24.6625 63.3622 25.4542 63.7122 26.1875C64.0622 26.9042 64.5706 27.4792 65.2372 27.9125C65.9039 28.3458 66.6956 28.5625 67.6122 28.5625ZM82.5054 30.2625C81.2387 30.2625 80.1304 29.9792 79.1804 29.4125C78.2304 28.8292 77.4887 28.0458 76.9554 27.0625C76.4387 26.0792 76.1804 24.9958 76.1804 23.8125C76.1804 22.6125 76.4304 21.5292 76.9304 20.5625C77.4304 19.5792 78.1471 18.8042 79.0804 18.2375C80.0137 17.6542 81.1137 17.3625 82.3804 17.3625C83.6637 17.3625 84.7637 17.6542 85.6804 18.2375C86.6137 18.8042 87.3304 19.5792 87.8304 20.5625C88.3304 21.5292 88.5804 22.6125 88.5804 23.8125V24.5625H78.1054C78.2054 25.2958 78.4387 25.9708 78.8054 26.5875C79.1887 27.1875 79.6971 27.6708 80.3304 28.0375C80.9637 28.3875 81.6971 28.5625 82.5304 28.5625C83.4137 28.5625 84.1554 28.3708 84.7554 27.9875C85.3554 27.5875 85.8221 27.0792 86.1554 26.4625H88.2054C87.7721 27.5792 87.0804 28.4958 86.1304 29.2125C85.1971 29.9125 83.9887 30.2625 82.5054 30.2625ZM78.1304 22.8125H86.6304C86.4637 21.7458 86.0137 20.8542 85.2804 20.1375C84.5471 19.4208 83.5804 19.0625 82.3804 19.0625C81.1804 19.0625 80.2137 19.4208 79.4804 20.1375C78.7637 20.8542 78.3137 21.7458 78.1304 22.8125ZM90.8714 30.0625V17.5625H92.7464V19.5125C93.1964 18.9125 93.7464 18.4042 94.3964 17.9875C95.0464 17.5708 95.8797 17.3625 96.8964 17.3625C97.7631 17.3625 98.5714 17.5708 99.3214 17.9875C100.088 18.3875 100.705 18.9958 101.171 19.8125C101.655 20.6125 101.896 21.6042 101.896 22.7875V30.0625H100.021V22.8375C100.021 21.7042 99.6964 20.7958 99.0464 20.1125C98.3964 19.4125 97.5547 19.0625 96.5214 19.0625C95.8214 19.0625 95.1881 19.2208 94.6214 19.5375C94.0547 19.8542 93.5964 20.3042 93.2464 20.8875C92.9131 21.4542 92.7464 22.1125 92.7464 22.8625V30.0625H90.8714ZM110.307 30.2625C109.09 30.2625 108.023 29.9792 107.107 29.4125C106.207 28.8292 105.507 28.0458 105.007 27.0625C104.507 26.0792 104.257 24.9958 104.257 23.8125C104.257 22.6125 104.507 21.5292 105.007 20.5625C105.507 19.5792 106.207 18.8042 107.107 18.2375C108.023 17.6542 109.09 17.3625 110.307 17.3625C111.34 17.3625 112.223 17.5625 112.957 17.9625C113.707 18.3625 114.315 18.9042 114.782 19.5875V17.5625H116.657V30.0625H114.782V28.0625C114.315 28.7292 113.707 29.2625 112.957 29.6625C112.223 30.0625 111.34 30.2625 110.307 30.2625ZM110.557 28.5625C111.49 28.5625 112.273 28.3458 112.907 27.9125C113.557 27.4792 114.048 26.9042 114.382 26.1875C114.715 25.4542 114.882 24.6625 114.882 23.8125C114.882 22.9458 114.715 22.1542 114.382 21.4375C114.048 20.7208 113.557 20.1458 112.907 19.7125C112.273 19.2792 111.49 19.0625 110.557 19.0625C109.64 19.0625 108.848 19.2792 108.182 19.7125C107.515 20.1458 107.007 20.7208 106.657 21.4375C106.307 22.1542 106.132 22.9458 106.132 23.8125C106.132 24.6625 106.307 25.4542 106.657 26.1875C107.007 26.9042 107.515 27.4792 108.182 27.9125C108.848 28.3458 109.64 28.5625 110.557 28.5625ZM119.9 30.0625V17.5625H121.775V20.6375C121.841 20.4208 121.966 20.1375 122.15 19.7875C122.35 19.4208 122.633 19.0542 123 18.6875C123.366 18.3208 123.825 18.0125 124.375 17.7625C124.941 17.4958 125.608 17.3625 126.375 17.3625H126.5V19.2375H126.275C125.341 19.2375 124.533 19.4958 123.85 20.0125C123.183 20.5125 122.666 21.1708 122.3 21.9875C121.95 22.7875 121.775 23.6458 121.775 24.5625V30.0625H119.9Z" fill="white"/>
</g>
<defs>
<filter id="filter0_d_50_407" x="0" y="0" width="162" height="53" filterUnits="userSpaceOnUse" color-interpolation-filters="sRGB">
<feFlood flood-opacity="0" result="BackgroundImageFix"/>
<feColorMatrix in="SourceAlpha" type="matrix" values="0 0 0 0 0 0 0 0 0 0 0 0 0 0 0 0 0 0 127 0" result="hardAlpha"/>
<feOffset dy="4"/>
<feGaussianBlur stdDeviation="2"/>
<feComposite in2="hardAlpha" operator="out"/>
<feColorMatrix type="matrix" values="0 0 0 0 0 0 0 0 0 0 0 0 0 0 0 0 0 0 0.25 0"/>
<feBlend mode="normal" in2="BackgroundImageFix" result="effect1_dropShadow_50_407"/>
<feBlend mode="normal" in="SourceGraphic" in2="effect1_dropShadow_50_407" result="shape"/>
</filter>
<filter id="filter1_d_50_407" x="0" y="0" width="162" height="53" filterUnits="userSpaceOnUse" color-interpolation-filters="sRGB">
<feFlood flood-opacity="0" result="BackgroundImageFix"/>
<feColorMatrix in="SourceAlpha" type="matrix" values="0 0 0 0 0 0 0 0 0 0 0 0 0 0 0 0 0 0 127 0" result="hardAlpha"/>
<feOffset dy="4"/>
<feGaussianBlur stdDeviation="2"/>
<feComposite in2="hardAlpha" operator="out"/>
<feColorMatrix type="matrix" values="0 0 0 0 0 0 0 0 0 0 0 0 0 0 0 0 0 0 0.25 0"/>
<feBlend mode="normal" in2="BackgroundImageFix" result="effect1_dropShadow_50_407"/>
<feBlend mode="normal" in="SourceGraphic" in2="effect1_dropShadow_50_407" result="shape"/>
</filter>
</defs>
</svg>
