<svg width="208" height="53" viewBox="0 0 208 53" fill="none" xmlns="http://www.w3.org/2000/svg">
<g filter="url(#filter0_d_50_398)">
<g filter="url(#filter1_d_50_398)">
<rect x="4" width="200" height="45" rx="16" fill="#00ABED"/>
<rect x="5" y="1" width="198" height="43" rx="15" stroke="white" stroke-width="2"/>
</g>
<path d="M16.9288 29.0625V13.8365H18.9298L28.3368 26.6475V13.8365H30.0618V29.0625H28.0608L18.6538 16.2055V29.0625H16.9288ZM38.42 29.2465C37.2546 29.2465 36.2426 28.9858 35.384 28.4645C34.5253 27.9278 33.866 27.2072 33.406 26.3025C32.946 25.3978 32.716 24.4012 32.716 23.3125C32.716 22.2085 32.946 21.2118 33.406 20.3225C33.866 19.4178 34.5253 18.7048 35.384 18.1835C36.2426 17.6468 37.2546 17.3785 38.42 17.3785C39.6006 17.3785 40.6126 17.6468 41.456 18.1835C42.3146 18.7048 42.974 19.4178 43.434 20.3225C43.894 21.2118 44.124 22.2085 44.124 23.3125C44.124 24.4012 43.894 25.3978 43.434 26.3025C42.974 27.2072 42.3146 27.9278 41.456 28.4645C40.6126 28.9858 39.6006 29.2465 38.42 29.2465ZM38.42 27.6825C39.2786 27.6825 39.9993 27.4832 40.582 27.0845C41.18 26.6858 41.6323 26.1568 41.939 25.4975C42.2456 24.8228 42.399 24.0945 42.399 23.3125C42.399 22.5152 42.2456 21.7868 41.939 21.1275C41.6323 20.4682 41.18 19.9392 40.582 19.5405C39.9993 19.1418 39.2786 18.9425 38.42 18.9425C37.5766 18.9425 36.856 19.1418 36.258 19.5405C35.66 19.9392 35.2076 20.4682 34.901 21.1275C34.5943 21.7868 34.441 22.5152 34.441 23.3125C34.441 24.0945 34.5943 24.8228 34.901 25.4975C35.2076 26.1568 35.66 26.6858 36.258 27.0845C36.856 27.4832 37.5766 27.6825 38.42 27.6825ZM49.3148 29.0625L44.8068 17.5625H46.6928L50.3268 27.2225L53.9378 17.5625H55.8238L51.3388 29.0625H49.3148ZM62.0681 29.2465C60.9488 29.2465 59.9674 28.9858 59.1241 28.4645C58.2961 27.9278 57.6521 27.2072 57.1921 26.3025C56.7321 25.3978 56.5021 24.4012 56.5021 23.3125C56.5021 22.2085 56.7321 21.2118 57.1921 20.3225C57.6521 19.4178 58.2961 18.7048 59.1241 18.1835C59.9674 17.6468 60.9488 17.3785 62.0681 17.3785C63.0188 17.3785 63.8314 17.5625 64.5061 17.9305C65.1961 18.2985 65.7558 18.7968 66.1851 19.4255V17.5625H67.9101V29.0625H66.1851V27.2225C65.7558 27.8358 65.1961 28.3265 64.5061 28.6945C63.8314 29.0625 63.0188 29.2465 62.0681 29.2465ZM62.2981 27.6825C63.1568 27.6825 63.8774 27.4832 64.4601 27.0845C65.0581 26.6858 65.5104 26.1568 65.8171 25.4975C66.1238 24.8228 66.2771 24.0945 66.2771 23.3125C66.2771 22.5152 66.1238 21.7868 65.8171 21.1275C65.5104 20.4682 65.0581 19.9392 64.4601 19.5405C63.8774 19.1418 63.1568 18.9425 62.2981 18.9425C61.4548 18.9425 60.7264 19.1418 60.1131 19.5405C59.4998 19.9392 59.0321 20.4682 58.7101 21.1275C58.3881 21.7868 58.2271 22.5152 58.2271 23.3125C58.2271 24.0945 58.3881 24.8228 58.7101 25.4975C59.0321 26.1568 59.4998 26.6858 60.1131 27.0845C60.7264 27.4832 61.4548 27.6825 62.2981 27.6825ZM76.1583 29.0625V13.8365H83.0123C84.6376 13.8365 85.918 14.2812 86.8533 15.1705C87.7886 16.0445 88.2563 17.2328 88.2563 18.7355C88.2563 20.2382 87.7886 21.4342 86.8533 22.3235C85.918 23.1975 84.6376 23.6345 83.0123 23.6345H77.8833V29.0625H76.1583ZM77.8833 22.0245H82.8973C84.0933 22.0245 84.998 21.7332 85.6113 21.1505C86.2246 20.5678 86.5313 19.7628 86.5313 18.7355C86.5313 17.7235 86.2246 16.9262 85.6113 16.3435C84.998 15.7608 84.0933 15.4695 82.8973 15.4695H77.8833V22.0245ZM94.7177 29.2465C93.9357 29.2465 93.192 29.0625 92.4867 28.6945C91.7813 28.3112 91.2063 27.7515 90.7617 27.0155C90.3323 26.2642 90.1177 25.3442 90.1177 24.2555V17.5625H91.8427V24.2095C91.8427 25.2522 92.1417 26.0955 92.7397 26.7395C93.353 27.3682 94.1273 27.6825 95.0627 27.6825C95.7067 27.6825 96.2893 27.5368 96.8107 27.2455C97.332 26.9388 97.746 26.5248 98.0527 26.0035C98.3747 25.4822 98.5357 24.8765 98.5357 24.1865V17.5625H100.261V29.0625H98.5357V27.2685C98.1217 27.8205 97.6157 28.2882 97.0177 28.6715C96.4197 29.0548 95.653 29.2465 94.7177 29.2465ZM109.102 29.2465C108.151 29.2465 107.331 29.0625 106.641 28.6945C105.966 28.3265 105.414 27.8358 104.985 27.2225V29.0625H103.26V12.9625H104.985V19.4255C105.414 18.7968 105.966 18.2985 106.641 17.9305C107.331 17.5625 108.151 17.3785 109.102 17.3785C110.221 17.3785 111.195 17.6468 112.023 18.1835C112.866 18.7048 113.518 19.4178 113.978 20.3225C114.438 21.2118 114.668 22.2085 114.668 23.3125C114.668 24.4012 114.438 25.3978 113.978 26.3025C113.518 27.2072 112.866 27.9278 112.023 28.4645C111.195 28.9858 110.221 29.2465 109.102 29.2465ZM108.872 27.6825C109.731 27.6825 110.459 27.4832 111.057 27.0845C111.67 26.6858 112.138 26.1568 112.46 25.4975C112.782 24.8228 112.943 24.0945 112.943 23.3125C112.943 22.5152 112.782 21.7868 112.46 21.1275C112.138 20.4682 111.67 19.9392 111.057 19.5405C110.459 19.1418 109.731 18.9425 108.872 18.9425C108.029 18.9425 107.308 19.1418 106.71 19.5405C106.112 19.9392 105.66 20.4682 105.353 21.1275C105.046 21.7868 104.893 22.5152 104.893 23.3125C104.893 24.0945 105.046 24.8228 105.353 25.4975C105.66 26.1568 106.112 26.6858 106.71 27.0845C107.308 27.4832 108.029 27.6825 108.872 27.6825ZM116.939 29.0625V12.9625H118.664V29.0625H116.939ZM121.587 15.6305V13.3765H123.45V15.6305H121.587ZM121.656 29.0625V17.5625H123.381V29.0625H121.656ZM131.317 29.2465C130.167 29.2465 129.171 28.9858 128.327 28.4645C127.484 27.9278 126.825 27.2072 126.349 26.3025C125.889 25.3978 125.659 24.4012 125.659 23.3125C125.659 22.2085 125.889 21.2118 126.349 20.3225C126.825 19.4178 127.484 18.7048 128.327 18.1835C129.171 17.6468 130.167 17.3785 131.317 17.3785C132.682 17.3785 133.84 17.7312 134.79 18.4365C135.756 19.1418 136.408 20.0542 136.745 21.1735H134.882C134.622 20.5142 134.2 19.9775 133.617 19.5635C133.05 19.1495 132.36 18.9425 131.547 18.9425C130.704 18.9425 129.968 19.1418 129.339 19.5405C128.711 19.9392 128.228 20.4682 127.89 21.1275C127.553 21.7868 127.384 22.5152 127.384 23.3125C127.384 24.0945 127.553 24.8228 127.89 25.4975C128.228 26.1568 128.711 26.6858 129.339 27.0845C129.968 27.4832 130.704 27.6825 131.547 27.6825C132.36 27.6825 133.05 27.4755 133.617 27.0615C134.2 26.6475 134.622 26.1108 134.882 25.4515H136.745C136.408 26.5708 135.756 27.4832 134.79 28.1885C133.84 28.8938 132.682 29.2465 131.317 29.2465ZM143.736 29.2465C142.617 29.2465 141.635 28.9858 140.792 28.4645C139.964 27.9278 139.32 27.2072 138.86 26.3025C138.4 25.3978 138.17 24.4012 138.17 23.3125C138.17 22.2085 138.4 21.2118 138.86 20.3225C139.32 19.4178 139.964 18.7048 140.792 18.1835C141.635 17.6468 142.617 17.3785 143.736 17.3785C144.687 17.3785 145.499 17.5625 146.174 17.9305C146.864 18.2985 147.424 18.7968 147.853 19.4255V17.5625H149.578V29.0625H147.853V27.2225C147.424 27.8358 146.864 28.3265 146.174 28.6945C145.499 29.0625 144.687 29.2465 143.736 29.2465ZM143.966 27.6825C144.825 27.6825 145.545 27.4832 146.128 27.0845C146.726 26.6858 147.178 26.1568 147.485 25.4975C147.792 24.8228 147.945 24.0945 147.945 23.3125C147.945 22.5152 147.792 21.7868 147.485 21.1275C147.178 20.4682 146.726 19.9392 146.128 19.5405C145.545 19.1418 144.825 18.9425 143.966 18.9425C143.123 18.9425 142.394 19.1418 141.781 19.5405C141.168 19.9392 140.7 20.4682 140.378 21.1275C140.056 21.7868 139.895 22.5152 139.895 23.3125C139.895 24.0945 140.056 24.8228 140.378 25.4975C140.7 26.1568 141.168 26.6858 141.781 27.0845C142.394 27.4832 143.123 27.6825 143.966 27.6825ZM157.737 27.6825C158.549 27.6825 159.239 27.4755 159.807 27.0615C160.389 26.6475 160.811 26.1108 161.072 25.4515H162.935C162.628 26.5095 162.03 27.3835 161.141 28.0735C160.267 28.7635 159.201 29.1468 157.944 29.2235L157.392 30.2125C157.576 30.1818 157.744 30.1665 157.898 30.1665C158.48 30.1665 158.979 30.3198 159.393 30.6265C159.807 30.9485 160.014 31.3855 160.014 31.9375C160.014 32.5815 159.753 33.0492 159.232 33.3405C158.71 33.6472 158.097 33.8005 157.392 33.8005C156.809 33.8005 156.28 33.7008 155.805 33.5015C155.345 33.3175 154.969 33.1028 154.678 32.8575L155.115 32.0985C155.36 32.2672 155.644 32.4205 155.966 32.5585C156.288 32.7118 156.656 32.7885 157.07 32.7885C157.422 32.7885 157.721 32.7272 157.967 32.6045C158.212 32.4818 158.335 32.2672 158.335 31.9605C158.335 31.7305 158.212 31.5465 157.967 31.4085C157.721 31.2705 157.438 31.2015 157.116 31.2015C156.84 31.2015 156.571 31.2398 156.311 31.3165L155.828 30.9255L156.909 29.2235C155.881 29.1315 154.984 28.8172 154.218 28.2805C153.466 27.7285 152.884 27.0232 152.47 26.1645C152.056 25.2905 151.849 24.3398 151.849 23.3125C151.849 22.2085 152.079 21.2118 152.539 20.3225C153.014 19.4178 153.673 18.7048 154.517 18.1835C155.36 17.6468 156.357 17.3785 157.507 17.3785C158.871 17.3785 160.029 17.7312 160.98 18.4365C161.946 19.1418 162.597 20.0542 162.935 21.1735H161.072C160.811 20.5142 160.389 19.9775 159.807 19.5635C159.239 19.1495 158.549 18.9425 157.737 18.9425C156.893 18.9425 156.157 19.1418 155.529 19.5405C154.9 19.9392 154.417 20.4682 154.08 21.1275C153.742 21.7868 153.574 22.5152 153.574 23.3125C153.574 24.0945 153.742 24.8228 154.08 25.4975C154.417 26.1568 154.9 26.6858 155.529 27.0845C156.157 27.4832 156.893 27.6825 157.737 27.6825ZM169.926 29.2465C168.806 29.2465 167.825 28.9858 166.982 28.4645C166.154 27.9278 165.51 27.2072 165.05 26.3025C164.59 25.3978 164.36 24.4012 164.36 23.3125C164.36 22.2085 164.59 21.2118 165.05 20.3225C165.51 19.4178 166.154 18.7048 166.982 18.1835C167.825 17.6468 168.806 17.3785 169.926 17.3785C170.876 17.3785 171.689 17.5625 172.364 17.9305C173.054 18.2985 173.613 18.7968 174.043 19.4255V17.5625H175.768V29.0625H174.043V27.2225C173.613 27.8358 173.054 28.3265 172.364 28.6945C171.689 29.0625 170.876 29.2465 169.926 29.2465ZM170.156 27.6825C171.014 27.6825 171.735 27.4832 172.318 27.0845C172.916 26.6858 173.368 26.1568 173.675 25.4975C173.981 24.8228 174.135 24.0945 174.135 23.3125C174.135 22.5152 173.981 21.7868 173.675 21.1275C173.368 20.4682 172.916 19.9392 172.318 19.5405C171.735 19.1418 171.014 18.9425 170.156 18.9425C169.312 18.9425 168.584 19.1418 167.971 19.5405C167.357 19.9392 166.89 20.4682 166.568 21.1275C166.246 21.7868 166.085 22.5152 166.085 23.3125C166.085 24.0945 166.246 24.8228 166.568 25.4975C166.89 26.1568 167.357 26.6858 167.971 27.0845C168.584 27.4832 169.312 27.6825 170.156 27.6825ZM171.835 15.9755C171.329 15.9755 170.907 15.8988 170.57 15.7455C170.248 15.5922 169.941 15.4388 169.65 15.2855C169.374 15.1322 169.059 15.0555 168.707 15.0555C168.354 15.0555 168.093 15.1552 167.925 15.3545C167.756 15.5538 167.633 15.7532 167.557 15.9525H166.844C166.92 15.3852 167.12 14.8715 167.442 14.4115C167.779 13.9362 168.323 13.6985 169.075 13.6985C169.565 13.6985 169.972 13.7752 170.294 13.9285C170.631 14.0818 170.938 14.2428 171.214 14.4115C171.505 14.5648 171.827 14.6415 172.18 14.6415C172.517 14.6415 172.77 14.5418 172.939 14.3425C173.123 14.1278 173.245 13.9208 173.307 13.7215H174.043C173.966 14.2888 173.759 14.8102 173.422 15.2855C173.1 15.7455 172.571 15.9755 171.835 15.9755ZM183.742 29.2465C182.577 29.2465 181.565 28.9858 180.706 28.4645C179.848 27.9278 179.188 27.2072 178.728 26.3025C178.268 25.3978 178.038 24.4012 178.038 23.3125C178.038 22.2085 178.268 21.2118 178.728 20.3225C179.188 19.4178 179.848 18.7048 180.706 18.1835C181.565 17.6468 182.577 17.3785 183.742 17.3785C184.923 17.3785 185.935 17.6468 186.778 18.1835C187.637 18.7048 188.296 19.4178 188.756 20.3225C189.216 21.2118 189.446 22.2085 189.446 23.3125C189.446 24.4012 189.216 25.3978 188.756 26.3025C188.296 27.2072 187.637 27.9278 186.778 28.4645C185.935 28.9858 184.923 29.2465 183.742 29.2465ZM183.742 27.6825C184.601 27.6825 185.322 27.4832 185.904 27.0845C186.502 26.6858 186.955 26.1568 187.261 25.4975C187.568 24.8228 187.721 24.0945 187.721 23.3125C187.721 22.5152 187.568 21.7868 187.261 21.1275C186.955 20.4682 186.502 19.9392 185.904 19.5405C185.322 19.1418 184.601 18.9425 183.742 18.9425C182.899 18.9425 182.178 19.1418 181.58 19.5405C180.982 19.9392 180.53 20.4682 180.223 21.1275C179.917 21.7868 179.763 22.5152 179.763 23.3125C179.763 24.0945 179.917 24.8228 180.223 25.4975C180.53 26.1568 180.982 26.6858 181.58 27.0845C182.178 27.4832 182.899 27.6825 183.742 27.6825Z" fill="white"/>
</g>
<defs>
<filter id="filter0_d_50_398" x="0" y="0" width="208" height="53" filterUnits="userSpaceOnUse" color-interpolation-filters="sRGB">
<feFlood flood-opacity="0" result="BackgroundImageFix"/>
<feColorMatrix in="SourceAlpha" type="matrix" values="0 0 0 0 0 0 0 0 0 0 0 0 0 0 0 0 0 0 127 0" result="hardAlpha"/>
<feOffset dy="4"/>
<feGaussianBlur stdDeviation="2"/>
<feComposite in2="hardAlpha" operator="out"/>
<feColorMatrix type="matrix" values="0 0 0 0 0 0 0 0 0 0 0 0 0 0 0 0 0 0 0.25 0"/>
<feBlend mode="normal" in2="BackgroundImageFix" result="effect1_dropShadow_50_398"/>
<feBlend mode="normal" in="SourceGraphic" in2="effect1_dropShadow_50_398" result="shape"/>
</filter>
<filter id="filter1_d_50_398" x="0" y="0" width="208" height="53" filterUnits="userSpaceOnUse" color-interpolation-filters="sRGB">
<feFlood flood-opacity="0" result="BackgroundImageFix"/>
<feColorMatrix in="SourceAlpha" type="matrix" values="0 0 0 0 0 0 0 0 0 0 0 0 0 0 0 0 0 0 127 0" result="hardAlpha"/>
<feOffset dy="4"/>
<feGaussianBlur stdDeviation="2"/>
<feComposite in2="hardAlpha" operator="out"/>
<feColorMatrix type="matrix" values="0 0 0 0 0 0 0 0 0 0 0 0 0 0 0 0 0 0 0.25 0"/>
<feBlend mode="normal" in2="BackgroundImageFix" result="effect1_dropShadow_50_398"/>
<feBlend mode="normal" in="SourceGraphic" in2="effect1_dropShadow_50_398" result="shape"/>
</filter>
</defs>
</svg>
